<svg width="12" height="18" viewBox="0 0 12 18" fill="none" xmlns="http://www.w3.org/2000/svg">
<path d="M12 5.97586C12 2.6755 9.3137 0 6 0C2.6863 0 0 2.6755 0 5.97586C0 8.99979 2.25524 11.4987 5.18182 11.8962V14.161H3.78182C3.32997 14.161 2.96364 14.5258 2.96364 14.9759C2.96364 15.4259 3.32997 15.7907 3.78182 15.7907H5.18182V17.1851C5.18182 17.6351 5.54815 18 6 18C6.45185 18 6.81818 17.6351 6.81818 17.1851V15.7907H7.12729C7.57914 15.7907 7.94546 15.4259 7.94546 14.9759C7.94546 14.5258 7.57914 14.161 7.12729 14.161H6.81818V11.8962C9.74476 11.4987 12 8.99979 12 5.97586ZM6 10.3219C3.59005 10.3219 1.63636 8.37612 1.63636 5.97586C1.63636 3.5756 3.59005 1.62977 6 1.62977C8.40996 1.62977 10.3636 3.5756 10.3636 5.97586C10.3636 8.37612 8.40996 10.3219 6 10.3219Z" fill="white"/>
<path d="M8.21219 14.161H7.12422V15.7907H8.21219C8.66283 15.7907 9.02817 15.4259 9.02817 14.9759C9.02817 14.5258 8.66283 14.161 8.21219 14.161Z" fill="white"/>
</svg>
