<svg width="15" height="15" viewBox="0 0 15 15" fill="none" xmlns="http://www.w3.org/2000/svg">
<path d="M5.82555 15C2.6133 15 0 12.3867 0 9.17446C0 5.96236 2.6133 3.34906 5.82555 3.34906C9.03764 3.34906 11.6509 5.96236 11.6509 9.17446C11.6509 12.3867 9.03764 15 5.82555 15ZM5.82555 5.52781C3.81465 5.52781 2.1786 7.16371 2.1786 9.17461C2.1786 11.1855 3.8145 12.8216 5.82555 12.8216C7.83629 12.8216 9.47249 11.1857 9.47249 9.17461C9.47234 7.16371 7.83629 5.52781 5.82555 5.52781Z" fill="white"/>
<path d="M15 5.82555H12.8214V2.1786H9.17441V0H15V5.82555Z" fill="white"/>
<path d="M13.1387 0.317871L14.679 1.85814L9.94355 6.59359L8.40329 5.05332L13.1387 0.317871Z" fill="white"/>
</svg>
