<svg width="61" height="60" viewBox="0 0 61 60" fill="none" xmlns="http://www.w3.org/2000/svg">
<g clip-path="url(#clip0_2161_6821)">
<path d="M60.5 6.31562C60.5 7.57996 60.0073 8.76882 59.113 9.66472L33.8492 34.928C32.9545 35.8224 31.7649 36.3157 30.4998 36.3157C29.2346 36.3157 28.0449 35.8223 27.1503 34.928L1.88703 9.66472C0.992305 8.77046 0.5 7.58007 0.5 6.31562C0.5 5.05117 0.992305 3.86077 1.88656 2.96651C2.78164 2.07214 3.97121 1.57878 5.23648 1.57878C6.50176 1.57878 7.69133 2.07226 8.58594 2.96651L30.4998 24.8808L52.4136 2.96664C53.3083 2.07226 54.4979 1.5789 55.763 1.5789C57.0282 1.5789 58.2179 2.07238 59.1125 2.96664C60.0073 3.86242 60.5 5.05128 60.5 6.31562Z" fill="url(#paint0_diamond_2161_6821)"/>
<path d="M60.5 28.421C60.5 29.6855 60.0073 30.8742 59.113 31.7701L33.8493 57.0335C32.9546 57.9279 31.765 58.4213 30.4999 58.4213C29.2347 58.4213 28.045 57.9278 27.1504 57.0335L1.88715 31.7702C0.992305 30.8759 0.5 29.6855 0.5 28.421C0.5 27.1566 0.992305 25.9662 1.88656 25.0719C2.78164 24.1776 3.97121 23.6842 5.23648 23.6842C6.50176 23.6842 7.69133 24.1776 8.58594 25.0719L30.4998 46.9861L52.4136 25.0719C53.3083 24.1776 54.4979 23.6842 55.763 23.6842C57.0282 23.6842 58.2179 24.1777 59.1125 25.0719C60.0073 25.9678 60.5 27.1567 60.5 28.421Z" fill="url(#paint1_diamond_2161_6821)"/>
</g>
<defs>
<radialGradient id="paint0_diamond_2161_6821" cx="0" cy="0" r="1" gradientUnits="userSpaceOnUse" gradientTransform="translate(39.05 18.9473) scale(38.55 22.3185)">
<stop stop-color="#B5E2E9"/>
<stop offset="1" stop-color="#6AC6E5"/>
</radialGradient>
<radialGradient id="paint1_diamond_2161_6821" cx="0" cy="0" r="1" gradientUnits="userSpaceOnUse" gradientTransform="translate(39.05 41.0527) scale(38.55 22.3186)">
<stop stop-color="#B5E2E9"/>
<stop offset="1" stop-color="#6AC6E5"/>
</radialGradient>
<clipPath id="clip0_2161_6821">
<rect width="60" height="60" fill="white" transform="matrix(0 -1 1 0 0.5 60)"/>
</clipPath>
</defs>
</svg>
