<svg width="12" height="16" viewBox="0 0 12 16" fill="none" xmlns="http://www.w3.org/2000/svg">
<path d="M2.67785e-05 14.7791V1.22087C-0.00180167 0.979777 0.0900438 0.743728 0.263853 0.542819C0.437662 0.341909 0.685559 0.185242 0.97594 0.0927896C1.26632 0.000337578 1.58603 -0.0237098 1.89431 0.0237133C2.20258 0.0711365 2.48545 0.187882 2.70686 0.359064L11.5397 7.14426C11.8345 7.37169 12 7.67933 12 8C12 8.32067 11.8345 8.62831 11.5397 8.85574L2.70686 15.6409C2.48545 15.8121 2.20258 15.9289 1.89431 15.9763C1.58603 16.0237 1.26632 15.9997 0.97594 15.9072C0.685559 15.8148 0.437662 15.6581 0.263853 15.4572C0.0900438 15.2563 -0.00180167 15.0202 2.67785e-05 14.7791Z" fill="black"/>
</svg>
