<svg width="24" height="25" viewBox="0 0 24 25" fill="none" xmlns="http://www.w3.org/2000/svg">
<g clip-path="url(#clip0_2153_669)">
<path d="M12 15.0635C13.3591 15.0635 14.4609 13.9158 14.4609 12.5C14.4609 11.0842 13.3591 9.93652 12 9.93652C10.6409 9.93652 9.53906 11.0842 9.53906 12.5C9.53906 13.9158 10.6409 15.0635 12 15.0635Z" fill="black"/>
<path d="M12 0.292969C5.52792 0.292969 0.28125 5.75825 0.28125 12.5C0.28125 19.2417 5.52792 24.707 12 24.707C18.4721 24.707 23.7188 19.2417 23.7188 12.5C23.7188 5.75825 18.4721 0.292969 12 0.292969ZM19.2402 15.6025C19.184 16.7631 18.8709 17.9075 18.059 18.7443C17.2392 19.589 16.1353 19.9038 15.0105 19.9618H8.98959C7.86459 19.9038 6.76087 19.5892 5.94108 18.7443C5.12911 17.9075 4.81608 16.7631 4.75983 15.6025V9.39746C4.81608 8.23691 5.12916 7.09248 5.94108 6.25566C6.76087 5.41094 7.86473 5.09619 8.98959 5.03823H15.0104C16.1354 5.09619 17.2391 5.41079 18.0589 6.25566C18.8709 7.09248 19.1839 8.23691 19.2402 9.39746L19.2402 15.6025Z" fill="black"/>
<path d="M14.9342 6.45183C13.4677 6.40994 10.5324 6.40994 9.06587 6.45183C8.3027 6.47366 7.43753 6.67156 6.89378 7.27654C6.32875 7.9054 6.11523 8.66516 6.09358 9.51511C6.05551 11.0069 6.09358 15.4844 6.09358 15.4844C6.11837 16.3343 6.32875 17.0942 6.89378 17.723C7.43753 18.3282 8.3027 18.5259 9.06587 18.5477C10.5324 18.5896 13.4677 18.5896 14.9342 18.5477C15.6974 18.5259 16.5626 18.328 17.1063 17.723C17.6714 17.0942 17.8849 16.3344 17.9065 15.4844V9.51511C17.8849 8.66516 17.6714 7.9054 17.1063 7.27654C16.5624 6.67136 15.6972 6.47366 14.9342 6.45183ZM11.9999 16.4732C11.2454 16.4732 10.508 16.2401 9.88068 15.8035C9.25339 15.3669 8.76449 14.7464 8.47578 14.0203C8.18707 13.2943 8.11153 12.4954 8.25871 11.7246C8.4059 10.9538 8.76919 10.2459 9.30265 9.69017C9.83611 9.13448 10.5158 8.75605 11.2557 8.60274C11.9956 8.44943 12.7626 8.52811 13.4596 8.82885C14.1566 9.12958 14.7523 9.63886 15.1715 10.2923C15.5906 10.9457 15.8143 11.7139 15.8143 12.4998C15.8143 13.5536 15.4124 14.5642 14.6971 15.3094C13.9818 16.0545 13.0115 16.4732 11.9999 16.4732ZM15.8305 9.34656C15.6797 9.34652 15.5322 9.29988 15.4068 9.21254C15.2813 9.12519 15.1836 9.00107 15.1259 8.85585C15.0681 8.71064 15.0531 8.55087 15.0825 8.39673C15.112 8.24259 15.1847 8.10101 15.2914 7.98989C15.3981 7.87877 15.534 7.8031 15.682 7.77246C15.83 7.74181 15.9833 7.75756 16.1227 7.81771C16.2621 7.87786 16.3812 7.97972 16.4651 8.1104C16.5489 8.24108 16.5936 8.39472 16.5936 8.55188C16.5936 8.65626 16.5739 8.75961 16.5355 8.85604C16.4972 8.95246 16.441 9.04008 16.3701 9.11387C16.2993 9.18767 16.2151 9.2462 16.1226 9.28612C16.03 9.32605 15.9307 9.34658 15.8305 9.34656Z" fill="black"/>
</g>
<defs>
<clipPath id="clip0_2153_669">
<rect width="24" height="25" fill="white"/>
</clipPath>
</defs>
</svg>
