<svg width="31" height="30" viewBox="0 0 31 30" fill="none" xmlns="http://www.w3.org/2000/svg">
<path d="M27.7522 21.0336C27.3266 20.7998 26.7923 20.9553 26.5587 21.3807C26.325 21.8061 26.4804 22.3405 26.9058 22.5742C27.9528 23.1493 28.5532 23.7869 28.5532 24.3235C28.5532 24.9798 27.6233 25.997 25.0134 26.8837C22.435 27.7598 18.9893 28.2422 15.311 28.2422C11.6328 28.2422 8.18709 27.7598 5.60867 26.8837C2.99873 25.9971 2.06885 24.9798 2.06885 24.3235C2.06885 23.7869 2.66932 23.1493 3.71627 22.5741C4.14172 22.3404 4.29711 21.8061 4.06338 21.3806C3.82965 20.9552 3.29545 20.7998 2.86988 21.0335C1.70258 21.6748 0.311035 22.7662 0.311035 24.3235C0.311035 25.5173 1.13205 27.2194 5.04318 28.5481C7.79896 29.4844 11.4455 30 15.311 30C19.1766 30 22.8231 29.4844 25.5789 28.5481C29.49 27.2194 30.311 25.5173 30.311 24.3235C30.311 22.7662 28.9195 21.6748 27.7522 21.0336Z" fill="#6AC6E5"/>
<path d="M8.67531 25.6131C10.4595 26.1171 12.8161 26.3948 15.3109 26.3948C17.8058 26.3948 20.1624 26.1172 21.9466 25.6131C24.1294 24.9965 25.2361 24.1039 25.2361 22.9603C25.2361 21.8166 24.1294 20.9241 21.9466 20.3075C21.462 20.1706 20.935 20.0506 20.3747 19.9482C20.0704 20.4739 19.7516 21.015 19.4183 21.5717C20.0385 21.6647 20.6207 21.7788 21.1495 21.9135C22.7559 22.3227 23.3427 22.7833 23.4634 22.9603C23.3427 23.1375 22.7559 23.5981 21.1495 24.0072C19.6291 24.3944 17.6729 24.6153 15.6125 24.6351C15.5127 24.6424 15.4122 24.6466 15.3109 24.6466C15.2096 24.6466 15.1091 24.6424 15.0093 24.6351C12.949 24.6153 10.9928 24.3945 9.4723 24.0072C7.8659 23.5981 7.27908 23.1374 7.15844 22.9603C7.27908 22.7833 7.86596 22.3227 9.47236 21.9135C10.0011 21.7789 10.5834 21.6647 11.2036 21.5717C10.8702 21.015 10.5514 20.4738 10.2471 19.9482C9.68687 20.0506 9.15982 20.1706 8.67531 20.3075C6.49252 20.9241 5.38574 21.8166 5.38574 22.9603C5.38574 24.1039 6.49252 24.9965 8.67531 25.6131Z" fill="#6AC6E5"/>
<path d="M15.3109 22.8887C16.0933 22.8887 16.804 22.4901 17.2122 21.8223C20.0721 17.1432 23.4813 10.9764 23.4813 8.17028C23.4813 3.66519 19.8161 3.05176e-05 15.3109 3.05176e-05C10.8058 3.05176e-05 7.14062 3.66519 7.14062 8.17028C7.14062 10.9764 10.5498 17.1432 13.4097 21.8223C13.8179 22.4901 14.5286 22.8887 15.3109 22.8887ZM12.0269 7.60931C12.0269 5.79859 13.5002 4.32542 15.3109 4.32542C17.1217 4.32542 18.5949 5.79859 18.5949 7.60931C18.5949 9.42009 17.1217 10.8933 15.3109 10.8933C13.5002 10.8933 12.0269 9.42015 12.0269 7.60931Z" fill="#6AC6E5"/>
</svg>
