<svg width="24" height="24" viewBox="0 0 24 24" fill="none" xmlns="http://www.w3.org/2000/svg">
<g clip-path="url(#clip0_2309_220)">
<path d="M11.4051 11.1466C12.9364 11.1466 14.2625 10.5974 15.3459 9.51379C16.4294 8.43034 16.9786 7.10467 16.9786 5.57315C16.9786 4.04216 16.4294 2.71631 15.3457 1.6325C14.2621 0.549229 12.9363 0 11.4051 0C9.87358 0 8.54791 0.549229 7.46446 1.63268C6.38101 2.71613 5.8316 4.04198 5.8316 5.57315C5.8316 7.10467 6.38101 8.43052 7.46464 9.51397C8.54827 10.5972 9.87411 11.1466 11.4051 11.1466Z" fill="#6AC6E5"/>
<path d="M21.1572 17.7935C21.126 17.3427 21.0628 16.8508 20.9697 16.3314C20.8758 15.8081 20.7549 15.3135 20.6101 14.8613C20.4606 14.394 20.2572 13.9325 20.0058 13.4903C19.7449 13.0313 19.4384 12.6316 19.0945 12.3027C18.7349 11.9586 18.2946 11.6819 17.7854 11.4801C17.278 11.2794 16.7157 11.1777 16.1142 11.1777C15.878 11.1777 15.6496 11.2747 15.2084 11.5619C14.9369 11.739 14.6193 11.9438 14.2648 12.1703C13.9616 12.3634 13.551 12.5444 13.0438 12.7082C12.5489 12.8683 12.0465 12.9495 11.5506 12.9495C11.0547 12.9495 10.5524 12.8683 10.057 12.7082C9.55032 12.5445 9.13968 12.3636 8.83691 12.1704C8.48576 11.946 8.16798 11.7413 7.8924 11.5617C7.45174 11.2745 7.22312 11.1776 6.9869 11.1776C6.38524 11.1776 5.82312 11.2794 5.31591 11.4803C4.80711 11.6818 4.36663 11.9584 4.00666 12.3028C3.66293 12.6319 3.35627 13.0314 3.09569 13.4903C2.84447 13.9325 2.64109 14.3938 2.49138 14.8615C2.34679 15.3136 2.22586 15.8081 2.13194 16.3314C2.0389 16.8501 1.9757 17.3421 1.94445 17.7941C1.91373 18.2368 1.89819 18.6964 1.89819 19.1605C1.89819 20.3684 2.28218 21.3463 3.03937 22.0675C3.78722 22.7792 4.77675 23.1402 5.98007 23.1402H17.1221C18.3255 23.1402 19.3146 22.7793 20.0626 22.0675C20.82 21.3468 21.204 20.3688 21.204 19.1603C21.2038 18.6941 21.1881 18.2342 21.1572 17.7935Z" fill="#6AC6E5"/>
</g>
<defs>
<clipPath id="clip0_2309_220">
<rect width="23.14" height="23.1401" fill="white"/>
</clipPath>
</defs>
</svg>
