<svg width="31" height="30" viewBox="0 0 31 30" fill="none" xmlns="http://www.w3.org/2000/svg">
<path d="M23.1187 19.8456C22.1386 18.878 20.915 18.878 19.9412 19.8456C19.1983 20.5823 18.4554 21.3189 17.725 22.068C17.5252 22.274 17.3567 22.3177 17.1132 22.1804C16.6325 21.9182 16.1206 21.7059 15.6586 21.4188C13.5049 20.0641 11.7008 18.3224 10.1026 16.3622C9.3098 15.3883 8.60438 14.3458 8.1112 13.1722C8.01132 12.9349 8.03005 12.7789 8.22357 12.5853C8.96645 11.8674 9.69061 11.1308 10.421 10.3941C11.4386 9.37034 11.4386 8.17173 10.4148 7.14169C9.83419 6.55487 9.25362 5.98054 8.67305 5.39372C8.07374 4.79442 7.48069 4.18888 6.87514 3.59582C5.89504 2.64069 4.67146 2.64069 3.6976 3.60207C2.94847 4.33871 2.23056 5.09407 1.46895 5.81823C0.763524 6.4862 0.407689 7.304 0.332776 8.25913C0.214165 9.81357 0.59497 11.2806 1.13184 12.7102C2.23056 15.6692 3.90361 18.2974 5.93249 20.7071C8.67305 23.9658 11.9442 26.544 15.771 28.4044C17.494 29.2409 19.2794 29.8839 21.2209 29.99C22.5568 30.0649 23.718 29.7278 24.6482 28.6853C25.2849 27.9736 26.0028 27.3244 26.677 26.6439C27.6759 25.6326 27.6821 24.409 26.6895 23.4102C25.5034 22.2178 24.3111 21.0317 23.1187 19.8456Z" fill="#6AC6E5"/>
<path d="M21.9263 14.8701L24.2298 14.4768C23.8678 12.3606 22.8689 10.444 21.352 8.92081C19.7476 7.31644 17.7187 6.30512 15.4838 5.99298L15.1592 8.30903C16.8884 8.5525 18.4616 9.33283 19.7039 10.5751C20.8775 11.7488 21.6454 13.2345 21.9263 14.8701Z" fill="#6AC6E5"/>
<path d="M25.5283 4.85683C22.869 2.19744 19.5041 0.518146 15.7897 0L15.4651 2.31605C18.6738 2.76552 21.5829 4.22008 23.8803 6.51115C26.059 8.68986 27.4886 11.4429 28.0067 14.4706L30.3103 14.0773C29.7047 10.5689 28.0504 7.38513 25.5283 4.85683Z" fill="#6AC6E5"/>
</svg>
