<svg width="20" height="20" viewBox="0 0 20 20" fill="none" xmlns="http://www.w3.org/2000/svg">
<path d="M10 15.8334C9.83452 15.8343 9.67247 15.786 9.53453 15.6945C9.3966 15.603 9.28904 15.4725 9.22557 15.3196C9.1621 15.1667 9.14559 14.9984 9.17815 14.8361C9.2107 14.6738 9.29085 14.5249 9.40838 14.4084L13.825 10L9.40838 5.59169C9.27186 5.43227 9.20052 5.22721 9.20862 5.01748C9.21672 4.80775 9.30366 4.6088 9.45208 4.46039C9.60049 4.31197 9.79944 4.22503 10.0092 4.21693C10.2189 4.20883 10.424 4.28017 10.5834 4.41669L15.5834 9.41669C15.7386 9.57283 15.8257 9.78403 15.8257 10.0042C15.8257 10.2243 15.7386 10.4356 15.5834 10.5917L10.5834 15.5917C10.4282 15.7456 10.2187 15.8324 10 15.8334Z" fill="#6AC6E5"/>
<path d="M5.00005 15.8333C4.83452 15.8343 4.67247 15.786 4.53453 15.6945C4.3966 15.603 4.28904 15.4725 4.22557 15.3196C4.1621 15.1667 4.14559 14.9984 4.17815 14.8361C4.2107 14.6738 4.29085 14.5249 4.40838 14.4083L8.82505 10L4.40838 5.59168C4.25146 5.43476 4.1633 5.22193 4.1633 5.00001C4.1633 4.77809 4.25146 4.56527 4.40838 4.40835C4.5653 4.25143 4.77813 4.16327 5.00005 4.16327C5.22196 4.16327 5.43479 4.25143 5.59171 4.40835L10.5917 9.40835C10.7469 9.56448 10.834 9.77569 10.834 9.99585C10.834 10.216 10.7469 10.4272 10.5917 10.5833L5.59171 15.5833C5.51453 15.6621 5.4225 15.7247 5.32093 15.7676C5.21937 15.8106 5.1103 15.8329 5.00005 15.8333Z" fill="#6AC6E5"/>
</svg>
