<svg width="29" height="29" viewBox="0 0 29 29" fill="none" xmlns="http://www.w3.org/2000/svg">
<path d="M14.3745 0.055238C14.3374 0.0539116 14.3002 0.0522537 14.2628 0.0522537C14.2498 0.0522537 14.2369 0.0529169 14.224 0.0532485C14.1971 0.0529169 14.1706 0.0522537 14.1437 0.0522537C6.4241 0.0522537 0.143555 6.33247 0.143555 14.0521C0.143555 21.7717 6.4241 28.0523 14.1437 28.0523C14.1706 28.0523 14.1971 28.0516 14.224 28.0513C14.2369 28.0516 14.2498 28.0523 14.2628 28.0523C14.3002 28.0523 14.3374 28.0506 14.3745 28.0493C21.988 27.9256 28.1436 21.6948 28.1436 14.0521C28.1436 6.40973 21.988 0.178919 14.3745 0.055238ZM24.4026 8.96127H20.2217C19.9537 7.34811 19.5568 5.86128 19.0445 4.58004C18.888 4.18877 18.7216 3.82171 18.5468 3.47819C21.0941 4.5429 23.1774 6.50224 24.4026 8.96127ZM25.5983 14.0521C25.5983 14.9268 25.4992 15.7786 25.3128 16.5977H20.5284C20.593 15.7664 20.6265 14.9152 20.6265 14.0521C20.6265 13.1893 20.593 12.3381 20.5284 11.5068H25.3128C25.4992 12.3259 25.5983 13.1777 25.5983 14.0521ZM14.3075 25.5047C14.284 25.505 14.2608 25.5054 14.2376 25.5057C13.4842 25.4805 12.5481 24.3378 11.8448 22.5791C11.4416 21.5714 11.12 20.392 10.8869 19.1263H17.639C17.4059 20.392 17.0842 21.5714 16.681 22.5791C15.9834 24.3233 15.0572 25.4613 14.3075 25.5047ZM10.551 16.5977C10.4814 15.7714 10.4446 14.9198 10.4446 14.0521C10.4446 13.1847 10.4814 12.3332 10.551 11.5068H17.9748C18.0445 12.3332 18.081 13.1847 18.081 14.0521C18.081 14.9198 18.0445 15.7714 17.9748 16.5977H10.551ZM2.68913 14.0521C2.68913 13.1777 2.78794 12.3086 2.97462 11.4899H7.9978C7.93314 12.3212 7.89932 13.1893 7.89932 14.0521C7.89932 14.9152 7.93314 15.7664 7.9978 16.5977H2.97462C2.78794 15.7786 2.68913 14.9268 2.68913 14.0521ZM14.2376 2.59882C14.2608 2.59916 14.284 2.59949 14.3075 2.59982C15.0572 2.64326 15.9834 3.78125 16.681 5.52539C17.0842 6.53308 17.4059 7.69561 17.639 8.96127H10.8869C11.12 7.69561 11.4416 6.53308 11.8448 5.52539C12.5481 3.76666 13.4842 2.62402 14.2376 2.59882ZM10.041 3.35782C9.8434 3.7355 9.65639 4.14268 9.48131 4.58004C8.96901 5.86128 8.57244 7.34811 8.30418 8.96127H3.88482C5.15778 6.40641 7.35718 4.39104 10.041 3.35782ZM3.88449 19.1432H8.30418C8.5721 20.7564 8.96901 22.2432 9.48131 23.5245C9.65639 23.9618 9.8434 24.369 10.041 24.7467C7.35718 23.7135 5.15778 21.6984 3.88449 19.1432ZM18.5468 24.6263C18.7216 24.2828 18.888 23.9157 19.0445 23.5245C19.5568 22.2432 19.9534 20.7395 20.2217 19.1263H24.4026C23.1774 21.5854 21.0941 23.5616 18.5468 24.6263Z" fill="#6AC6E5"/>
</svg>
